<svg height="512" viewBox="0 0 40 60" width="512" xmlns="http://www.w3.org/2000/svg"><g id="Page-1" fill="none" fill-rule="evenodd"><g id="041---Attention-Location" fill-rule="nonzero"><path id="Shape" d="m38.58 54.26-1.81 1.13-14.51-5.69c-.1358111-.0575928-.2263986-.1881513-.2328064-.3355302-.0064078-.1473788.0725064-.2853069.2028064-.3544698l9.49-5.1 2.73.91c.0941312.0298424.1611153.1133187.1698585.2116792.0087432.0983606-.0424669.1923431-.1298585.2383208l-6.99 3.76c-.0875851.045558-.1408373.1377396-.1365489.2363717.0042883.0986321.0653402.185844.1565489.2236283l11.02 4.33c.086753.0344449.1467626.1147503.1552133.2077079s-.0360939.1827679-.1152133.2322921z" fill="#c81e1e"/><path id="Shape" d="m36.77 55.39-5.65 3.53c-.0754156.0482265-.1709734.0520489-.25.01l-10.75-5.79c-.075-.04-.165-.04-.24 0l-6.23 3.35-4.52 2.44c-.0790266.0420489-.17458441.0382265-.25-.01l-2.33-1.46-5.13-3.2c-.07911941-.0495242-.12366395-.1393345-.11521326-.2322921s.0684603-.173263.15521326-.2077079l11.02-4.33c.0912087-.0377843.1522606-.1249962.1565489-.2236283.0042884-.0986321-.0489638-.1908137-.1365489-.2363717l-6.99-3.76c-.0873916-.0459777-.13860167-.1399602-.12985851-.2383208.00874316-.0983605.07572734-.1818368.16985851-.2116792l2.32-.77 3.04-1.02c.0548954-.0200372.1151046-.0200372.17 0l2.81 1.11h.01l4.17 1.64h3.86l6.99-2.75c.0548954-.0200372.1151046-.0200372.17 0l3.91.88-10.03 5.1c-.1303.0691629-.2092142.207091-.2028064.3544698.0064078.1473789.0969953.2779374.2328064.3355302z" fill="#f44335"/><path id="Shape" d="m38 4v32c.0010634.795975-.3146656 1.5596548-.8775054 2.1224946s-1.3265196.8785688-2.1224946.8775054h-9l-5.79 9.64c-.0437986.0743841-.123679.1200485-.21.1200485s-.1662014-.0456644-.21-.1200485l-1.29-2.15-4.5-7.49h-9c-.795975.0010634-1.55965477-.3146656-2.12249459-.8775054s-.87856884-1.3265196-.87750541-2.1224946v-32c-.00106343-.795975.31466559-1.55965477.87750541-2.12249459s1.32651959-.87856884 2.12249459-.87750541h30c.795975-.00106343 1.5596548.31466559 2.1224946.87750541s.8785688 1.32651959.8775054 2.12249459z" fill="#6a1b9a"/><path id="Shape" d="m35 4v32c.0010634.795975-.3146656 1.5596548-.8775054 2.1224946s-1.3265196.8785688-2.1224946.8775054h-9l-4.5 7.49-4.5-7.49h-9c-.795975.0010634-1.55965477-.3146656-2.12249459-.8775054s-.87856884-1.3265196-.87750541-2.1224946v-32c-.00106343-.795975.31466559-1.55965477.87750541-2.12249459s1.32651959-.87856884 2.12249459-.87750541h27c.795975-.00106343 1.5596548.31466559 2.1224946.87750541s.8785688 1.32651959.8775054 2.12249459z" fill="#9d27b0"/><path id="Shape" d="m20 28v6c-1.6568542 0-3-1.3431458-3-3s1.3431458-3 3-3z" fill="#ffdc00"/><path id="Shape" d="m23 31c.0010634.795975-.3146656 1.5596548-.8775054 2.1224946s-1.3265196.8785688-2.1224946.8775081v-6.0000054c.795975-.0010607 1.5596548.3146683 2.1224946.8775081s.8785688 1.3265196.8775054 2.1224946z" fill="#fec108"/><path id="Shape" d="m20 5.99999525v18.00001065l-2.05-.0000059c-.5300138.001807-.9690505-.4108875-1-.94l-.89-16c-.0169165-.27554172.0809638-.54579703.2704022-.7466017s.4535386-.31424877.7295978-.3133983z" fill="#ffdc00"/><path id="Shape" d="m23.94 7.06-.89 16c-.0309495.5291125-.4699862.941807-1 .94l-2.05.0000059v-18.00001065l2.94.00000475c.2760592-.00085047.5401594.11259363.7295978.3133983s.2873187.47105998.2704022.7466017z" fill="#fec108"/><g fill="#000"><path id="Shape" d="m20 35c-2.209139 0-4-1.790861-4-4s1.790861-4 4-4 4 1.790861 4 4c-.0023149 2.2081794-1.7918206 3.9976851-4 4zm0-6c-1.1045695 0-2 .8954305-2 2s.8954305 2 2 2 2-.8954305 2-2c-.0012675-1.1040441-.8959559-1.9987325-2-2z"/><path id="Shape" d="m23 25h-6c-.530665.0000278-.968942-.4144588-.9985-.9443l-1-18c-.0154891-.27451378.0828016-.54328317.271734-.74303872s.4518157-.3128503.726766-.31266128h8c.2749503-.00018902.5378336.11290573.726766.31266128s.2872231.46852494.271734.74303872l-1 18c-.029558.5298412-.467835.9443278-.9985.9443zm-5.0542-2h4.1084l.8887-16h-5.8858z"/><path id="Shape" d="m30.99 59.9609c-.2046625-.000065-.4061846-.050334-.5869-.1464l-10.4031-5.5987-10.3979 5.5967c-.39651746.2114349-.87575958.1950395-1.2569-.043l-7.4541-4.6595c-.4000817-.2501605-.62520248-.7042916-.58205594-1.1741682s.34720673-.8754155.78615594-1.0485318l9.5108-3.7393-5.5694-2.9931c-.43956082-.2360935-.69661639-.710977-.65394854-1.208102.04266785-.4971251.37688547-.92126.85024854-1.078998l5.3648-1.7878c.2779814-.0928665.5797791-.0849366.8525.0224l6.9858 2.7476c.3324892.1308307.5699246.4291041.6228665.7824635.052942.3533594-.0866527.7081212-.3662.93065-.2795472.2225288-.6565773.2790172-.9890665.1481865l-6.7324-2.6474-3.458 1.1523 5.4653 2.9375c.4286731.2306607.6845489.6891068.6558391 1.1750499-.0287099.4859431-.3367878.9110705-.7896391 1.0896501l-9.6308 3.7861 5.8242 3.6406 10.3691-5.582c.3701935-.1998817.8162441-.1995056 1.1861.001l10.3686 5.581 5.8242-3.6406-9.63-3.7861c-.4525094-.1779847-.760738-.6022344-.7901683-1.0875973-.0294302-.485363.2252795-.9437467.6529683-1.1751027l5.4678-2.9395-3.458-1.1523-6.7324 2.6474c-.3324892.1308128-.7095097.0743079-.9890416-.1482298-.2795318-.2225377-.4191074-.5772995-.36615-.93065s.2904024-.6516074.6228916-.7824202l6.9853-2.7471c.2727967-.1078161.5749206-.1157499.853-.0224l5.3648 1.7881c.4737125.1578055.808074.5823813.8504315 1.079887.0423576.4975057-.215415.9724957-.6556315 1.208113l-5.5679 2.9918 9.51 3.7393c.4398067.1729067.7445037.5790602.7874698 1.0496774s-.1831451.925232-.5843698 1.1749226l-7.4541 4.6582c-.1984938.1250077-.4284231.1910387-.663.1904zm-.396-1.8867-.0029.002zm-21.19-.001.0024.002zm28.645-4.6582-.0029.001zm-36.1006-.0019.003.0019zm32.0674-9.0195-.0019.0009zm-28.0337-.001.002.001z"/><path id="Shape" d="m20 49.7646c-.4400698.0018467-.8481502-.2296894-1.0723-.6084l-5.4941-9.1562h-8.4336c-2.20817941-.0023149-3.99768506-1.7918206-4-4v-32c.00231494-2.20817941 1.79182059-3.99768506 4-4h30c2.2081794.00231494 3.9976851 1.79182059 4 4v32c-.0023149 2.2081794-1.7918206 3.9976851-4 4h-8.4336l-5.4946 9.1572c-.2243098.378172-.6321121.6092778-1.0718.6074zm-15-47.7646c-1.10404407.00126747-1.99873253.89595593-2 2v32c.00126747 1.1040441.89595593 1.9987325 2 2h9c.351172.0001497.6765676.184366.8574.4854l5.1426 8.5712 5.1426-8.5712c.1808324-.301034.506228-.4852503.8574-.4854h9c1.1040441-.0012675 1.9987325-.8959559 2-2v-32c-.0012675-1.10404407-.8959559-1.99873253-2-2z"/></g></g></g></svg>