<svg id="Layer_1" height="512" viewBox="0 0 128 128" width="512" xmlns="http://www.w3.org/2000/svg" data-name="Layer 1"><path d="m66.556 69.352-24.225 52.148-4.856-13.282-13.283 4.856 24.225-52.148z" fill="#ecf0f1"/><path d="m61.444 69.352 24.225 52.148 4.856-13.282 13.283 4.856-24.225-52.148z" fill="#d1d4d5"/><path d="m105.808 48.308c0 3.564-4.4 6.5-5.279 9.79-.909 3.4 1.406 8.141-.317 11.119-1.748 3.021-7.026 3.374-9.478 5.826s-2.805 7.73-5.826 9.477c-2.978 1.723-7.717-.592-11.118.317-3.287.879-6.225 5.279-9.79 5.279s-6.5-4.4-9.79-5.279c-3.4-.909-8.141 1.406-11.119-.317-3.021-1.748-3.374-7.026-5.826-9.478s-7.73-2.805-9.477-5.826c-1.723-2.978.592-7.717-.317-11.118-.879-3.287-5.279-6.225-5.279-9.79s4.4-6.5 5.279-9.79c.909-3.4-1.406-8.141.317-11.119 1.748-3.021 7.026-3.374 9.478-5.826s2.805-7.73 5.826-9.477c2.978-1.723 7.717.592 11.118-.317 3.29-.879 6.226-5.279 9.79-5.279s6.5 4.4 9.79 5.279c3.4.909 8.141-1.406 11.119.317 3.021 1.748 3.374 7.026 5.826 9.478s7.73 2.805 9.477 5.826c1.723 2.978-.592 7.717.317 11.118.878 3.287 5.279 6.226 5.279 9.79z" fill="#fb503c"/><path d="m105.808 48.308c0 3.564-4.4 6.5-5.279 9.79-.909 3.4 1.406 8.141-.317 11.119-1.748 3.021-7.026 3.374-9.478 5.826s-2.805 7.73-5.826 9.477c-2.978 1.723-7.717-.592-11.118.317-3.287.879-6.225 5.279-9.79 5.279s-6.5-4.4-9.79-5.279c-3.4-.909-8.141 1.406-11.119-.317-3.021-1.748-3.374-7.026-5.826-9.478s-7.73-2.805-9.477-5.826c-1.723-2.978.592-7.717-.317-11.118-.879-3.287-5.279-6.225-5.279-9.79s4.4-6.5 5.279-9.79c.909-3.4-1.406-8.141.317-11.119 1.748-3.021 7.026-3.374 9.478-5.826s2.805-7.73 5.826-9.477c2.978-1.723 7.717.592 11.118-.317 3.29-.879 6.226-5.279 9.79-5.279s6.5 4.4 9.79 5.279c3.4.909 8.141-1.406 11.119.317 3.021 1.748 3.374 7.026 5.826 9.478s7.73 2.805 9.477 5.826c1.723 2.978-.592 7.717.317 11.118.878 3.287 5.279 6.226 5.279 9.79z" fill="#fb503c"/><path d="m64 75.115a26.808 26.808 0 1 1 26.808-26.807 26.838 26.838 0 0 1 -26.808 26.807z" fill="#f3d55b"/><path d="m64 32.333 3.965 12.204h12.831l-10.38 7.542 3.965 12.203-10.381-7.542-10.381 7.542 3.965-12.203-10.38-7.542h12.831z" fill="#ecf0f1"/><path d="m105.808 48.308c0 3.564-4.4 6.5-5.279 9.79-.909 3.4 1.406 8.141-.317 11.119-1.748 3.021-7.026 3.374-9.478 5.826s-2.805 7.73-5.826 9.477c-2.978 1.723-7.717-.592-11.118.317-3.287.879-6.225 5.279-9.79 5.279s-6.5-4.4-9.79-5.279c-3.4-.909-8.141 1.406-11.119-.317-3.021-1.748-3.374-7.026-5.826-9.478s-7.73-2.805-9.477-5.826c-1.723-2.978.592-7.717-.317-11.118-.879-3.287-5.279-6.225-5.279-9.79s4.4-6.5 5.279-9.79c.909-3.4-1.406-8.141.317-11.119 1.748-3.021 7.026-3.374 9.478-5.826s2.805-7.73 5.826-9.477c2.978-1.723 7.717.592 11.118-.317 3.29-.879 6.226-5.279 9.79-5.279s6.5 4.4 9.79 5.279c3.4.909 8.141-1.406 11.119.317 3.021 1.748 3.374 7.026 5.826 9.478s7.73 2.805 9.477 5.826c1.723 2.978-.592 7.717.317 11.118.878 3.287 5.279 6.226 5.279 9.79z" fill="none"/><g fill="#26180d"><path d="m94.438 88.754a1.75 1.75 0 0 0 -3.174 1.476l9.179 19.748-9.313-3.4a1.752 1.752 0 0 0 -2.244 1.042l-3.408 9.314-13.544-29.157a7.628 7.628 0 0 1 2.308-1.25 12.331 12.331 0 0 1 4.379.106c2.456.321 5 .655 7.164-.6 2.2-1.273 3.229-3.768 4.136-5.969a12.126 12.126 0 0 1 2.051-3.786 12.133 12.133 0 0 1 3.786-2.051c2.2-.907 4.7-1.935 5.969-4.136 1.255-2.168.921-4.708.6-7.165a12.331 12.331 0 0 1 -.106-4.379 11.889 11.889 0 0 1 2.2-3.574c1.469-1.9 3.135-4.064 3.135-6.667s-1.666-4.762-3.135-6.667a11.889 11.889 0 0 1 -2.2-3.574 12.331 12.331 0 0 1 .106-4.379c.322-2.456.656-5-.6-7.164-1.273-2.2-3.768-3.229-5.969-4.136a12.126 12.126 0 0 1 -3.786-2.051 12.133 12.133 0 0 1 -2.051-3.786c-.907-2.2-1.935-4.7-4.136-5.969-2.169-1.255-4.709-.921-7.164-.6a12.323 12.323 0 0 1 -4.379.106 11.9 11.9 0 0 1 -3.575-2.2c-1.905-1.47-4.067-3.136-6.667-3.136s-4.762 1.666-6.667 3.135a11.889 11.889 0 0 1 -3.574 2.2 12.32 12.32 0 0 1 -4.379-.106c-2.457-.322-5-.656-7.164.6-2.2 1.273-3.229 3.768-4.136 5.969a12.126 12.126 0 0 1 -2.051 3.786 12.133 12.133 0 0 1 -3.786 2.051c-2.2.907-4.7 1.935-5.969 4.136-1.255 2.168-.921 4.708-.6 7.165a12.331 12.331 0 0 1 .106 4.379 11.9 11.9 0 0 1 -2.2 3.575c-1.469 1.9-3.135 4.064-3.135 6.667s1.666 4.762 3.135 6.667a18.142 18.142 0 0 1 1.878 2.742 1.75 1.75 0 0 0 3.132-1.562 20.959 20.959 0 0 0 -2.238-3.317c-1.237-1.6-2.406-3.119-2.406-4.529s1.169-2.925 2.406-4.53a14.369 14.369 0 0 0 2.813-4.808 14.878 14.878 0 0 0 -.017-5.739c-.258-1.962-.5-3.816.158-4.956.678-1.171 2.424-1.891 4.273-2.652a14.639 14.639 0 0 0 4.921-2.812 14.648 14.648 0 0 0 2.813-4.928c.762-1.849 1.481-3.6 2.652-4.273 1.14-.66 2.993-.416 4.956-.158a14.844 14.844 0 0 0 5.738.017 14.369 14.369 0 0 0 4.808-2.813c1.608-1.237 3.123-2.406 4.533-2.406s2.925 1.169 4.53 2.406a14.369 14.369 0 0 0 4.808 2.813 14.878 14.878 0 0 0 5.739-.017c1.962-.258 3.816-.5 4.956.158 1.171.678 1.891 2.424 2.652 4.273a14.632 14.632 0 0 0 2.815 4.928 14.65 14.65 0 0 0 4.927 2.813c1.849.762 3.6 1.481 4.273 2.652.659 1.139.416 2.993.158 4.956a14.864 14.864 0 0 0 -.017 5.738 14.368 14.368 0 0 0 2.813 4.808c1.237 1.6 2.406 3.12 2.406 4.53s-1.169 2.926-2.406 4.53a14.368 14.368 0 0 0 -2.813 4.808 14.878 14.878 0 0 0 .017 5.739c.258 1.962.5 3.816-.158 4.956-.678 1.171-2.424 1.891-4.273 2.652a14.632 14.632 0 0 0 -4.927 2.807 14.65 14.65 0 0 0 -2.813 4.927c-.762 1.849-1.481 3.6-2.652 4.273-1.139.659-2.992.416-4.955.158a14.863 14.863 0 0 0 -5.738-.017 14.364 14.364 0 0 0 -4.809 2.813c-1.6 1.237-3.12 2.406-4.529 2.406s-2.925-1.169-4.53-2.406a14.375 14.375 0 0 0 -4.808-2.814 14.9 14.9 0 0 0 -5.738.017c-1.964.258-3.818.5-4.957-.158-1.113-.644-1.819-2.257-2.541-4a1.752 1.752 0 0 0 -.074-.179l-.038-.091a14.632 14.632 0 0 0 -2.818-4.929 14.65 14.65 0 0 0 -4.927-2.813c-1.849-.762-3.6-1.481-4.273-2.652a5.3 5.3 0 0 1 -.376-3.066 1.75 1.75 0 1 0 -3.488-.286 8.662 8.662 0 0 0 .835 5.1c1.273 2.2 3.768 3.229 5.969 4.136a12.126 12.126 0 0 1 3.786 2.051 10.378 10.378 0 0 1 1.824 3.245l-15.25 32.817a1.75 1.75 0 0 0 2.187 2.382l11.638-4.25 4.262 11.636a1.75 1.75 0 0 0 1.57 1.147h.074a1.75 1.75 0 0 0 1.586-1.013l15.013-32.314a8.937 8.937 0 0 0 5.07 1.945 8.936 8.936 0 0 0 5.07-1.945l15.013 32.317a1.749 1.749 0 0 0 1.586 1.013h.074a1.75 1.75 0 0 0 1.57-1.147l4.259-11.638 11.638 4.25a1.75 1.75 0 0 0 2.187-2.382zm-51.916 28.179-3.408-9.314a1.751 1.751 0 0 0 -2.244-1.042l-9.313 3.4 12.252-26.36a7.172 7.172 0 0 0 2.405 2.417c2.168 1.255 4.708.923 7.165.6a12.351 12.351 0 0 1 4.378-.106 7.631 7.631 0 0 1 2.308 1.25z"/><path d="m76.573 22.669a28.218 28.218 0 0 0 -12.573-2.919 28.577 28.577 0 1 0 23.962 13.035 1.75 1.75 0 0 0 -2.935 1.907 25.046 25.046 0 1 1 -10-8.883 1.75 1.75 0 0 0 1.546-3.14z"/><path d="m82.921 31.085a1.75 1.75 0 0 0 1.236-2.985c-.526-.524-1.079-1.034-1.642-1.514a1.75 1.75 0 1 0 -2.271 2.662c.494.422.979.87 1.441 1.331a1.744 1.744 0 0 0 1.236.506z"/><path d="m65.665 31.793a1.75 1.75 0 0 0 -3.329 0l-3.572 10.994h-11.564a1.75 1.75 0 0 0 -1.029 3.166l9.353 6.794-3.569 10.994a1.75 1.75 0 0 0 2.693 1.959l9.352-6.8 9.352 6.8a1.75 1.75 0 0 0 2.693-1.957l-3.572-10.996 9.353-6.794a1.75 1.75 0 0 0 -1.026-3.166h-11.564zm3.722 18.87a1.751 1.751 0 0 0 -.636 1.957l2.3 7.081-6.023-4.376a1.752 1.752 0 0 0 -2.058 0l-6.022 4.375 2.3-7.081a1.751 1.751 0 0 0 -.636-1.957l-6.022-4.375h7.445a1.75 1.75 0 0 0 1.665-1.21l2.3-7.077 2.3 7.08a1.75 1.75 0 0 0 1.665 1.209h7.445z"/></g></svg>